# xmcd CD database file generated by LOLA_Freedb v0.9beta0
# 
# Track frame offsets:
#      150
#      10633
#      27248
#      46965
#      59860
#      72160
#      87675
#      105343
#      118120
#      135575
# 
# Disc length: 2037 seconds
# 
# Revision: 0 
# Processed by: cddbd v1.5.1PL2 Copyright (c) Steve Scherf et al.
# Submitted via: LOLA_Freedb v0.9beta0
# 
DISCID=8607f30a
DTITLE=Bryan's Time - Incredible Years
DYEAR=1900
DGENRE=
TTITLE0=Bryan's Time - Cry, Cry, Cry
TTITLE1=Bryan's Time - Games People Play
TTITLE2=Bryan's Time - Help Me Make It Through The Night
TTITLE3=Bryan's Time - Abilene
TTITLE4=Bryan's Time - Willie's Gone
TTITLE5=Bryan's Time - Whisky, Whisky
TTITLE6=Bryan's Time - Incredible Years
TTITLE7=Bryan's Time - Honky Tonk Heart
TTITLE8=Bryan's Time - Thank You Lord
TTITLE9=Bryan's Time - Banks Of The Ohio
EXTD=
EXTT0=
EXTT1=
EXTT2=
EXTT3=
EXTT4=
EXTT5=
EXTT6=
EXTT7=
EXTT8=
EXTT9=
PLAYORDER=
